<svg height="512" viewBox="0 0 64 64" width="512" xmlns="http://www.w3.org/2000/svg"><g id="Layer_17" data-name="Layer 17"><path d="m34 62h-18c-7.732 0-14-13.431-14-30s6.268-30 14-30h18" fill="#323d42"/><path d="m20 2c-7.732 0-14 13.431-14 30s6.268 30 14 30h10c-7.732 0-14-13.431-14-30s6.268-30 14-30z" fill="#51626b"/><path d="m34 62c-7.732 0-14-13.431-14-30s6.268-30 14-30 14 13.431 14 30-6.268 30-14 30" fill="#65777f"/><ellipse cx="34" cy="32" fill="#323d42" rx="8" ry="22"/><path d="m34 10c-4.418 0-8 9.85-8 22 0 8.468 1.741 15.814 4.291 19.492a3.313 3.313 0 0 0 1.709.508c4.418 0 8-9.85 8-22 0-8.468-1.741-15.814-4.291-19.492a3.313 3.313 0 0 0 -1.709-.508z" fill="#43525b"/><path d="m26.41 61h-1.41c-2.952 0-5.709-2.336-7.92-6.2l4.471 1.118a26.562 26.562 0 0 1 -1.294-2.386l-4.379-1.095c-.367-.815-.711-1.681-1.034-2.586l4.356 1.249q-.429-1.111-.807-2.31l-4.293-1.229c-.267-.916-.514-1.865-.735-2.845l4.235 1.209c-.177-.724-.344-1.463-.494-2.22l-4.184-1.2q-.243-1.349-.425-2.756l4.135 1.182c-.1-.707-.19-1.429-.269-2.157l-4.106-1.174c-.1-1.049-.164-2.118-.207-3.2l4.063 1.355c-.041-.707-.074-1.419-.092-2.139l-4.021-1.336c0-.094 0-.186 0-.28 0-.8.019-1.59.049-2.375l3.966 1.133q.019-1.038.071-2.059l-3.927-1.122q.1-1.443.274-2.842l3.864 1.1c.066-.681.146-1.35.233-2.013l-3.818-1.091q.228-1.446.52-2.825l3.781.886c.125-.664.259-1.319.4-1.959l-3.732-.875c.281-1.1.591-2.164.932-3.174l3.6 1.028q.293-.978.617-1.9l-3.52-1.006a29.924 29.924 0 0 1 1.556-3.333l3.357.96c.3-.633.617-1.238.945-1.81l-3.22-.923c2.052-3.019 4.475-4.8 7.052-4.8h1.41a7.224 7.224 0 0 1 3.59-1h-8.85a14.79 14.79 0 0 0 -5.309 5.291l-4.6 1.315q-.662 1.137-1.254 2.438l4.469-1.277q-.627 1.268-1.177 2.685l-4.369 1.248q-.4 1.107-.748 2.294l4.3-1.229q-.439 1.38-.806 2.865l-4.24 1.211c-.164.72-.313 1.458-.451 2.208l4.189-1.2q-.271 1.353-.482 2.772l-4.14 1.183c-.094.708-.179 1.423-.249 2.151l4.117-1.171q-.149 1.329-.243 2.7l-4.068 1.165q-.054 1.041-.074 2.1l4.032-1.149c-.028.791-.047 1.59-.047 2.4 0 .178.005.353.006.53l-3.983 1.138c.017.692.049 1.376.088 2.054l3.943-1.122q.055 1.458.173 2.871l-3.885 1.11q.107 1.019.243 2.01l3.842-1.1q.165 1.432.394 2.807l-3.776 1.078q.191 1 .415 1.961l3.722-1.063q.334 1.644.757 3.18l-3.686.86q.3.979.628 1.907l3.625-.846q.538 1.671 1.179 3.173l-3.484.871q.456.957.949 1.824l3.388-.847c1.81 3.608 4.07 6.258 6.609 7.6h8.853a7.224 7.224 0 0 1 -3.59-.996z" fill="#323d42"/><circle cx="44" cy="20" fill="#e2b13f" r="18"/><path d="m44 2a17.9 17.9 0 0 0 -11.129 3.871 17.983 17.983 0 0 0 25.258 25.258 17.983 17.983 0 0 0 -14.129-29.129z" fill="#fad66f"/><path d="m39.025 32.01 2.975-1.01 2 2 2-2 2.975 1.01 1.025-3.01h3v-3l3.01-1.025-1.01-2.975 2-2-2-2 1.01-2.975-3.01-1.025.192-3.192-3.192.192-1.025-3.01-2.975 1.01-2-2-2 2-2.975-1.01-1.025 3.01h-3v3l-3.01 1.025 1.01 2.975-2 2 2 2-1.01 2.975 3.01 1.025v3h3z" fill="#b13b27"/><circle cx="44" cy="20" fill="#dd4334" r="7"/><path d="m44 13a6.966 6.966 0 0 0 -4.423 1.577 7 7 0 0 0 9.846 9.846 7 7 0 0 0 -5.423-11.423z" fill="#e47971"/></g></svg>